<mxfile host="app.diagrams.net" modified="2024-06-20T09:25:11.744Z" agent="Mozilla/5.0 (Windows NT 10.0; Win64; x64) AppleWebKit/537.36 (KHTML, like Gecko) Chrome/126.0.0.0 Safari/537.36" etag="i7d6S7d_itm9zLu8PBX-" version="22.1.18" type="github">
  <diagram name="第 1 页" id="g5mnnLTr8dJ7k5P0LiKz">
    <mxGraphModel dx="5999" dy="3537" grid="1" gridSize="10" guides="1" tooltips="1" connect="1" arrows="1" fold="1" page="1" pageScale="1" pageWidth="850" pageHeight="1100" math="0" shadow="0">
      <root>
        <mxCell id="0" />
        <mxCell id="1" parent="0" />
        <mxCell id="FPDgv3qLQ0yW6cerFrk5-1" value="" style="rounded=0;whiteSpace=wrap;html=1;" vertex="1" parent="1">
          <mxGeometry x="320" y="270" width="120" height="60" as="geometry" />
        </mxCell>
        <mxCell id="FPDgv3qLQ0yW6cerFrk5-2" value="seq0_base_virtual&lt;br&gt;(vseq)" style="rounded=1;whiteSpace=wrap;html=1;" vertex="1" parent="1">
          <mxGeometry x="410" y="200" width="120" height="60" as="geometry" />
        </mxCell>
        <mxCell id="FPDgv3qLQ0yW6cerFrk5-3" value="seq1_base_virtual_child" style="rounded=1;whiteSpace=wrap;html=1;" vertex="1" parent="1">
          <mxGeometry x="400" y="300" width="140" height="40" as="geometry" />
        </mxCell>
        <mxCell id="FPDgv3qLQ0yW6cerFrk5-4" value="" style="endArrow=classic;html=1;entryX=0.5;entryY=0;entryDx=0;entryDy=0;exitX=0.5;exitY=1;exitDx=0;exitDy=0;" edge="1" parent="1" source="FPDgv3qLQ0yW6cerFrk5-2" target="FPDgv3qLQ0yW6cerFrk5-3">
          <mxGeometry width="50" height="50" relative="1" as="geometry">
            <mxPoint x="430" y="300" as="sourcePoint" />
            <mxPoint x="480" y="250" as="targetPoint" />
          </mxGeometry>
        </mxCell>
        <mxCell id="FPDgv3qLQ0yW6cerFrk5-5" value="extends" style="edgeLabel;html=1;align=center;verticalAlign=middle;resizable=0;points=[];" vertex="1" connectable="0" parent="FPDgv3qLQ0yW6cerFrk5-4">
          <mxGeometry x="-0.163" relative="1" as="geometry">
            <mxPoint as="offset" />
          </mxGeometry>
        </mxCell>
        <mxCell id="FPDgv3qLQ0yW6cerFrk5-6" value="" style="group" vertex="1" connectable="0" parent="1">
          <mxGeometry x="530" y="200" width="150" height="60" as="geometry" />
        </mxCell>
        <mxCell id="FPDgv3qLQ0yW6cerFrk5-7" value="apb_init_cfg_seq" style="rounded=0;whiteSpace=wrap;html=1;" vertex="1" parent="FPDgv3qLQ0yW6cerFrk5-6">
          <mxGeometry width="150" height="20" as="geometry" />
        </mxCell>
        <mxCell id="FPDgv3qLQ0yW6cerFrk5-8" value="apb_reg_write_read_seq" style="rounded=0;whiteSpace=wrap;html=1;" vertex="1" parent="FPDgv3qLQ0yW6cerFrk5-6">
          <mxGeometry y="20" width="150" height="20" as="geometry" />
        </mxCell>
        <mxCell id="FPDgv3qLQ0yW6cerFrk5-9" value="axis_return_rsp_seq" style="rounded=0;whiteSpace=wrap;html=1;" vertex="1" parent="FPDgv3qLQ0yW6cerFrk5-6">
          <mxGeometry y="40" width="150" height="20" as="geometry" />
        </mxCell>
        <mxCell id="FPDgv3qLQ0yW6cerFrk5-10" value="" style="endArrow=classic;html=1;entryX=0.5;entryY=0;entryDx=0;entryDy=0;exitX=0.5;exitY=1;exitDx=0;exitDy=0;" edge="1" parent="1" source="FPDgv3qLQ0yW6cerFrk5-3" target="FPDgv3qLQ0yW6cerFrk5-14">
          <mxGeometry width="50" height="50" relative="1" as="geometry">
            <mxPoint x="570" y="340" as="sourcePoint" />
            <mxPoint x="570" y="380" as="targetPoint" />
          </mxGeometry>
        </mxCell>
        <mxCell id="FPDgv3qLQ0yW6cerFrk5-11" value="extends" style="edgeLabel;html=1;align=center;verticalAlign=middle;resizable=0;points=[];" vertex="1" connectable="0" parent="FPDgv3qLQ0yW6cerFrk5-10">
          <mxGeometry x="-0.163" relative="1" as="geometry">
            <mxPoint as="offset" />
          </mxGeometry>
        </mxCell>
        <mxCell id="FPDgv3qLQ0yW6cerFrk5-12" value="" style="group" vertex="1" connectable="0" parent="1">
          <mxGeometry x="345" y="380" width="222.5" height="80" as="geometry" />
        </mxCell>
        <mxCell id="FPDgv3qLQ0yW6cerFrk5-13" value="&lt;br&gt;&lt;br&gt;tc6_t_axis_host_1ring" style="rounded=1;whiteSpace=wrap;html=1;" vertex="1" parent="FPDgv3qLQ0yW6cerFrk5-12">
          <mxGeometry y="10" width="160" height="70" as="geometry" />
        </mxCell>
        <mxCell id="FPDgv3qLQ0yW6cerFrk5-14" value="seq6_t_axis_host_1ring" style="rounded=1;whiteSpace=wrap;html=1;" vertex="1" parent="FPDgv3qLQ0yW6cerFrk5-12">
          <mxGeometry x="55" width="140" height="40" as="geometry" />
        </mxCell>
        <mxCell id="FPDgv3qLQ0yW6cerFrk5-15" value="cfg&lt;br&gt;(top_config)" style="rounded=1;whiteSpace=wrap;html=1;fillColor=#ffff88;strokeColor=#36393d;" vertex="1" parent="FPDgv3qLQ0yW6cerFrk5-12">
          <mxGeometry x="145" y="30" width="87.5" height="30" as="geometry" />
        </mxCell>
        <mxCell id="FPDgv3qLQ0yW6cerFrk5-16" value="" style="group" vertex="1" connectable="0" parent="1">
          <mxGeometry x="760" y="440" width="240" height="20" as="geometry" />
        </mxCell>
        <mxCell id="FPDgv3qLQ0yW6cerFrk5-17" value="axis_return_rsp_seq" style="rounded=0;whiteSpace=wrap;html=1;" vertex="1" parent="FPDgv3qLQ0yW6cerFrk5-16">
          <mxGeometry width="120" height="20" as="geometry" />
        </mxCell>
        <mxCell id="FPDgv3qLQ0yW6cerFrk5-18" value="axis_return_rsp_seq" style="rounded=0;whiteSpace=wrap;html=1;" vertex="1" parent="FPDgv3qLQ0yW6cerFrk5-16">
          <mxGeometry x="120" width="120" height="20" as="geometry" />
        </mxCell>
        <mxCell id="FPDgv3qLQ0yW6cerFrk5-19" value="" style="endArrow=classic;html=1;exitX=1;exitY=0.5;exitDx=0;exitDy=0;entryX=0;entryY=0.5;entryDx=0;entryDy=0;" edge="1" parent="1" source="FPDgv3qLQ0yW6cerFrk5-14" target="FPDgv3qLQ0yW6cerFrk5-21">
          <mxGeometry width="50" height="50" relative="1" as="geometry">
            <mxPoint x="610" y="390" as="sourcePoint" />
            <mxPoint x="660" y="340" as="targetPoint" />
          </mxGeometry>
        </mxCell>
        <mxCell id="FPDgv3qLQ0yW6cerFrk5-20" value="" style="group" vertex="1" connectable="0" parent="1">
          <mxGeometry x="670" y="340" width="70" height="120" as="geometry" />
        </mxCell>
        <mxCell id="FPDgv3qLQ0yW6cerFrk5-21" value="启动seq" style="rounded=0;whiteSpace=wrap;html=1;" vertex="1" parent="FPDgv3qLQ0yW6cerFrk5-20">
          <mxGeometry y="50" width="50" height="20" as="geometry" />
        </mxCell>
        <mxCell id="FPDgv3qLQ0yW6cerFrk5-22" value="" style="shape=curlyBracket;whiteSpace=wrap;html=1;rounded=1;" vertex="1" parent="FPDgv3qLQ0yW6cerFrk5-20">
          <mxGeometry x="50" width="20" height="120" as="geometry" />
        </mxCell>
        <mxCell id="FPDgv3qLQ0yW6cerFrk5-23" value="" style="group" vertex="1" connectable="0" parent="1">
          <mxGeometry x="760" y="340" width="150" height="30" as="geometry" />
        </mxCell>
        <mxCell id="FPDgv3qLQ0yW6cerFrk5-24" value="apb_init_cfg_seq" style="rounded=0;whiteSpace=wrap;html=1;" vertex="1" parent="FPDgv3qLQ0yW6cerFrk5-23">
          <mxGeometry width="120" height="20" as="geometry" />
        </mxCell>
        <mxCell id="FPDgv3qLQ0yW6cerFrk5-25" value="&lt;p style=&quot;line-height: 80%&quot;&gt;&lt;/p&gt;&lt;div style=&quot;font-size: 11px&quot;&gt;&lt;font style=&quot;font-size: 11px&quot;&gt;&lt;sub&gt;cfg&lt;/sub&gt;&lt;/font&gt;&lt;/div&gt;&lt;font style=&quot;line-height: 60% ; font-size: 11px&quot;&gt;&lt;div&gt;&lt;br&gt;&lt;/div&gt;&lt;/font&gt;&lt;p&gt;&lt;/p&gt;" style="rounded=1;whiteSpace=wrap;html=1;fillColor=#ffff88;strokeColor=#36393d;align=center;" vertex="1" parent="FPDgv3qLQ0yW6cerFrk5-23">
          <mxGeometry x="110" y="10" width="40" height="20" as="geometry" />
        </mxCell>
        <mxCell id="FPDgv3qLQ0yW6cerFrk5-26" value="cfg&lt;br&gt;(top_config)" style="rounded=1;whiteSpace=wrap;html=1;fillColor=#ffff88;strokeColor=#36393d;" vertex="1" parent="1">
          <mxGeometry x="1310" y="130" width="87.5" height="300" as="geometry" />
        </mxCell>
        <mxCell id="FPDgv3qLQ0yW6cerFrk5-27" value="" style="group" vertex="1" connectable="0" parent="1">
          <mxGeometry x="1470" y="10" width="440" height="320" as="geometry" />
        </mxCell>
        <mxCell id="FPDgv3qLQ0yW6cerFrk5-28" value="a_qi_ifun&lt;br&gt;(a_qRing_Info_15b[ bit[14:0]])" style="rounded=0;whiteSpace=wrap;html=1;" vertex="1" parent="FPDgv3qLQ0yW6cerFrk5-27">
          <mxGeometry x="-60" y="120" width="180" height="80" as="geometry" />
        </mxCell>
        <mxCell id="FPDgv3qLQ0yW6cerFrk5-29" value="" style="strokeWidth=2;html=1;shape=mxgraph.flowchart.annotation_2;align=left;labelPosition=right;pointerEvents=1;" vertex="1" parent="FPDgv3qLQ0yW6cerFrk5-27">
          <mxGeometry x="120" width="50" height="320" as="geometry" />
        </mxCell>
        <mxCell id="FPDgv3qLQ0yW6cerFrk5-30" value="" style="group" vertex="1" connectable="0" parent="FPDgv3qLQ0yW6cerFrk5-27">
          <mxGeometry x="160" width="280" height="300" as="geometry" />
        </mxCell>
        <mxCell id="FPDgv3qLQ0yW6cerFrk5-31" value="" style="group" vertex="1" connectable="0" parent="FPDgv3qLQ0yW6cerFrk5-30">
          <mxGeometry width="280" height="220" as="geometry" />
        </mxCell>
        <mxCell id="FPDgv3qLQ0yW6cerFrk5-32" value="q_ring_info[$]" style="rounded=0;whiteSpace=wrap;html=1;" vertex="1" parent="FPDgv3qLQ0yW6cerFrk5-31">
          <mxGeometry y="70" width="80" height="80" as="geometry" />
        </mxCell>
        <mxCell id="FPDgv3qLQ0yW6cerFrk5-33" value="" style="group" vertex="1" connectable="0" parent="FPDgv3qLQ0yW6cerFrk5-31">
          <mxGeometry x="130" y="5" width="150" height="70" as="geometry" />
        </mxCell>
        <mxCell id="FPDgv3qLQ0yW6cerFrk5-34" value="ring_info" style="rounded=0;whiteSpace=wrap;html=1;" vertex="1" parent="FPDgv3qLQ0yW6cerFrk5-33">
          <mxGeometry width="50" height="70" as="geometry" />
        </mxCell>
        <mxCell id="FPDgv3qLQ0yW6cerFrk5-35" value="pf_id" style="rounded=0;whiteSpace=wrap;html=1;" vertex="1" parent="FPDgv3qLQ0yW6cerFrk5-33">
          <mxGeometry x="50" width="50" height="10" as="geometry" />
        </mxCell>
        <mxCell id="FPDgv3qLQ0yW6cerFrk5-36" value="vf_id" style="rounded=0;whiteSpace=wrap;html=1;" vertex="1" parent="FPDgv3qLQ0yW6cerFrk5-33">
          <mxGeometry x="50" y="10" width="50" height="10" as="geometry" />
        </mxCell>
        <mxCell id="FPDgv3qLQ0yW6cerFrk5-37" value="def_type" style="rounded=0;whiteSpace=wrap;html=1;" vertex="1" parent="FPDgv3qLQ0yW6cerFrk5-33">
          <mxGeometry x="50" y="20" width="50" height="10" as="geometry" />
        </mxCell>
        <mxCell id="FPDgv3qLQ0yW6cerFrk5-38" value="rid_abs" style="rounded=0;whiteSpace=wrap;html=1;" vertex="1" parent="FPDgv3qLQ0yW6cerFrk5-33">
          <mxGeometry x="50" y="30" width="50" height="10" as="geometry" />
        </mxCell>
        <mxCell id="FPDgv3qLQ0yW6cerFrk5-39" value="rid_rel" style="rounded=0;whiteSpace=wrap;html=1;" vertex="1" parent="FPDgv3qLQ0yW6cerFrk5-33">
          <mxGeometry x="50" y="40" width="50" height="10" as="geometry" />
        </mxCell>
        <mxCell id="FPDgv3qLQ0yW6cerFrk5-40" value="sys_opt" style="rounded=0;whiteSpace=wrap;html=1;" vertex="1" parent="FPDgv3qLQ0yW6cerFrk5-33">
          <mxGeometry x="50" y="50" width="50" height="20" as="geometry" />
        </mxCell>
        <mxCell id="FPDgv3qLQ0yW6cerFrk5-41" value="HOST" style="rounded=0;whiteSpace=wrap;html=1;fillColor=#f5f5f5;strokeColor=#666666;fontColor=#333333;" vertex="1" parent="FPDgv3qLQ0yW6cerFrk5-33">
          <mxGeometry x="100" y="50" width="50" height="10" as="geometry" />
        </mxCell>
        <mxCell id="FPDgv3qLQ0yW6cerFrk5-42" value="SOC" style="rounded=0;whiteSpace=wrap;html=1;fillColor=#f5f5f5;strokeColor=#666666;fontColor=#333333;" vertex="1" parent="FPDgv3qLQ0yW6cerFrk5-33">
          <mxGeometry x="100" y="60" width="50" height="10" as="geometry" />
        </mxCell>
        <mxCell id="FPDgv3qLQ0yW6cerFrk5-43" value="ring_info" style="rounded=0;whiteSpace=wrap;html=1;" vertex="1" parent="FPDgv3qLQ0yW6cerFrk5-31">
          <mxGeometry x="130" y="85" width="50" height="70" as="geometry" />
        </mxCell>
        <mxCell id="FPDgv3qLQ0yW6cerFrk5-44" value="" style="strokeWidth=2;html=1;shape=mxgraph.flowchart.annotation_2;align=left;labelPosition=right;pointerEvents=1;" vertex="1" parent="FPDgv3qLQ0yW6cerFrk5-31">
          <mxGeometry x="80" width="50" height="220" as="geometry" />
        </mxCell>
        <mxCell id="FPDgv3qLQ0yW6cerFrk5-45" value="&lt;p style=&quot;line-height: 90%&quot;&gt;&lt;/p&gt;&lt;div style=&quot;text-align: justify ; font-size: 11px&quot;&gt;&lt;div&gt;&lt;b&gt;.&lt;/b&gt;&lt;/div&gt;&lt;div&gt;&lt;b&gt;.&lt;/b&gt;&lt;/div&gt;&lt;div&gt;&lt;b&gt;.&lt;/b&gt;&lt;/div&gt;&lt;/div&gt;&lt;p&gt;&lt;/p&gt;" style="text;html=1;align=center;verticalAlign=middle;resizable=0;points=[];autosize=1;" vertex="1" parent="FPDgv3qLQ0yW6cerFrk5-31">
          <mxGeometry x="140" y="145" width="20" height="70" as="geometry" />
        </mxCell>
        <mxCell id="FPDgv3qLQ0yW6cerFrk5-46" value="&lt;p style=&quot;line-height: 90%&quot;&gt;&lt;/p&gt;&lt;div style=&quot;text-align: justify ; font-size: 11px&quot;&gt;&lt;div&gt;&lt;b&gt;.&lt;/b&gt;&lt;/div&gt;&lt;div&gt;&lt;b&gt;.&lt;/b&gt;&lt;/div&gt;&lt;div&gt;&lt;b&gt;.&lt;/b&gt;&lt;/div&gt;&lt;/div&gt;&lt;p&gt;&lt;/p&gt;" style="text;html=1;align=center;verticalAlign=middle;resizable=0;points=[];autosize=1;" vertex="1" parent="FPDgv3qLQ0yW6cerFrk5-30">
          <mxGeometry x="30" y="230" width="20" height="70" as="geometry" />
        </mxCell>
        <mxCell id="FPDgv3qLQ0yW6cerFrk5-47" value="&lt;font color=&quot;#ffff66&quot; style=&quot;font-size: 21px;&quot;&gt;parameter &lt;/font&gt;&lt;font color=&quot;#d48888&quot; style=&quot;font-size: 21px;&quot;&gt;HOST_PF &lt;/font&gt;&lt;font color=&quot;#bca685&quot; style=&quot;font-size: 21px;&quot;&gt;=&lt;/font&gt; &lt;font color=&quot;#d48888&quot; style=&quot;font-size: 21px;&quot;&gt;6&#39;d2&lt;/font&gt;&lt;font color=&quot;#bca685&quot; style=&quot;font-size: 21px;&quot;&gt;;&lt;/font&gt;&lt;br style=&quot;font-size: 21px;&quot;&gt;&lt;font color=&quot;#ffff66&quot; style=&quot;font-size: 21px;&quot;&gt;parameter&lt;/font&gt; &lt;font color=&quot;#d48888&quot; style=&quot;font-size: 21px;&quot;&gt;SOC_PF&lt;/font&gt;&amp;nbsp; &amp;nbsp;&lt;font color=&quot;#bca685&quot; style=&quot;font-size: 21px;&quot;&gt;=&lt;/font&gt; &lt;font color=&quot;#d48888&quot; style=&quot;font-size: 21px;&quot;&gt;6&#39;d3&lt;/font&gt;&lt;font color=&quot;#bca685&quot; style=&quot;font-size: 21px;&quot;&gt;;&lt;/font&gt;" style="text;html=1;align=center;verticalAlign=middle;resizable=0;points=[];autosize=1;fillColor=#000000;fontSize=21;" vertex="1" parent="1">
          <mxGeometry x="1010" y="30" width="280" height="60" as="geometry" />
        </mxCell>
        <mxCell id="FPDgv3qLQ0yW6cerFrk5-48" value="" style="group" vertex="1" connectable="0" parent="1">
          <mxGeometry x="900" y="-200" width="500" height="135" as="geometry" />
        </mxCell>
        <mxCell id="FPDgv3qLQ0yW6cerFrk5-49" value="pf_id&lt;br&gt;[5:0]" style="rounded=0;whiteSpace=wrap;html=1;fontSize=21;fillColor=none;" vertex="1" parent="FPDgv3qLQ0yW6cerFrk5-48">
          <mxGeometry x="138" y="30" width="82" height="60" as="geometry" />
        </mxCell>
        <mxCell id="FPDgv3qLQ0yW6cerFrk5-50" value="vf_id&lt;br&gt;[8:0]" style="rounded=0;whiteSpace=wrap;html=1;fontSize=21;fillColor=none;" vertex="1" parent="FPDgv3qLQ0yW6cerFrk5-48">
          <mxGeometry x="220" y="30" width="82" height="60" as="geometry" />
        </mxCell>
        <mxCell id="FPDgv3qLQ0yW6cerFrk5-51" value="def_type&lt;br&gt;[1:0]" style="rounded=0;whiteSpace=wrap;html=1;fontSize=21;fillColor=none;" vertex="1" parent="FPDgv3qLQ0yW6cerFrk5-48">
          <mxGeometry x="302" y="30" width="88" height="60" as="geometry" />
        </mxCell>
        <mxCell id="FPDgv3qLQ0yW6cerFrk5-52" value="addr&lt;br&gt;[26:0]" style="rounded=0;whiteSpace=wrap;html=1;fontSize=21;fillColor=none;" vertex="1" parent="FPDgv3qLQ0yW6cerFrk5-48">
          <mxGeometry x="390" y="30" width="110" height="60" as="geometry" />
        </mxCell>
        <mxCell id="FPDgv3qLQ0yW6cerFrk5-53" value="26" style="text;html=1;align=center;verticalAlign=middle;resizable=0;points=[];autosize=1;fontSize=21;" vertex="1" parent="FPDgv3qLQ0yW6cerFrk5-48">
          <mxGeometry x="390" width="40" height="30" as="geometry" />
        </mxCell>
        <mxCell id="FPDgv3qLQ0yW6cerFrk5-54" value="43" style="text;html=1;align=center;verticalAlign=middle;resizable=0;points=[];autosize=1;fontSize=21;" vertex="1" parent="FPDgv3qLQ0yW6cerFrk5-48">
          <mxGeometry x="138" width="40" height="30" as="geometry" />
        </mxCell>
        <mxCell id="FPDgv3qLQ0yW6cerFrk5-55" value="37" style="text;html=1;align=center;verticalAlign=middle;resizable=0;points=[];autosize=1;fontSize=21;" vertex="1" parent="FPDgv3qLQ0yW6cerFrk5-48">
          <mxGeometry x="220" width="40" height="30" as="geometry" />
        </mxCell>
        <mxCell id="FPDgv3qLQ0yW6cerFrk5-56" value="28" style="text;html=1;align=center;verticalAlign=middle;resizable=0;points=[];autosize=1;fontSize=21;" vertex="1" parent="FPDgv3qLQ0yW6cerFrk5-48">
          <mxGeometry x="302" width="40" height="30" as="geometry" />
        </mxCell>
        <mxCell id="FPDgv3qLQ0yW6cerFrk5-57" value="" style="endArrow=none;html=1;fontSize=21;" edge="1" parent="FPDgv3qLQ0yW6cerFrk5-48">
          <mxGeometry width="50" height="50" relative="1" as="geometry">
            <mxPoint x="138" y="135" as="sourcePoint" />
            <mxPoint x="137.51999999999998" y="90" as="targetPoint" />
          </mxGeometry>
        </mxCell>
        <mxCell id="FPDgv3qLQ0yW6cerFrk5-58" value="" style="endArrow=none;html=1;fontSize=21;" edge="1" parent="FPDgv3qLQ0yW6cerFrk5-48">
          <mxGeometry width="50" height="50" relative="1" as="geometry">
            <mxPoint x="390.48" y="130" as="sourcePoint" />
            <mxPoint x="390" y="85" as="targetPoint" />
          </mxGeometry>
        </mxCell>
        <mxCell id="FPDgv3qLQ0yW6cerFrk5-59" value="" style="endArrow=classic;startArrow=classic;html=1;fontSize=21;" edge="1" parent="FPDgv3qLQ0yW6cerFrk5-48">
          <mxGeometry width="50" height="50" relative="1" as="geometry">
            <mxPoint x="140" y="115" as="sourcePoint" />
            <mxPoint x="390" y="115" as="targetPoint" />
          </mxGeometry>
        </mxCell>
        <mxCell id="FPDgv3qLQ0yW6cerFrk5-60" value="17bit" style="edgeLabel;html=1;align=center;verticalAlign=middle;resizable=0;points=[];fontSize=21;" vertex="1" connectable="0" parent="FPDgv3qLQ0yW6cerFrk5-59">
          <mxGeometry x="-0.1612" y="2" relative="1" as="geometry">
            <mxPoint x="15.24" y="2" as="offset" />
          </mxGeometry>
        </mxCell>
        <mxCell id="FPDgv3qLQ0yW6cerFrk5-61" value="APB paddr" style="text;html=1;align=center;verticalAlign=middle;resizable=0;points=[];autosize=1;fontSize=21;" vertex="1" parent="FPDgv3qLQ0yW6cerFrk5-48">
          <mxGeometry y="45" width="120" height="30" as="geometry" />
        </mxCell>
        <mxCell id="FPDgv3qLQ0yW6cerFrk5-62" value="ring_id[7:0]" style="rounded=0;whiteSpace=wrap;html=1;fillColor=none;fontSize=21;" vertex="1" parent="1">
          <mxGeometry x="1520" y="860" width="140" height="60" as="geometry" />
        </mxCell>
        <mxCell id="FPDgv3qLQ0yW6cerFrk5-63" value="rsvd" style="rounded=0;whiteSpace=wrap;html=1;fillColor=none;fontSize=21;" vertex="1" parent="1">
          <mxGeometry x="1380" y="860" width="140" height="60" as="geometry" />
        </mxCell>
        <mxCell id="FPDgv3qLQ0yW6cerFrk5-64" value="vf_id[8:0]" style="rounded=0;whiteSpace=wrap;html=1;fillColor=none;fontSize=21;" vertex="1" parent="1">
          <mxGeometry x="1230" y="860" width="150" height="60" as="geometry" />
        </mxCell>
        <mxCell id="FPDgv3qLQ0yW6cerFrk5-65" value="pf_id[5:0]" style="rounded=0;whiteSpace=wrap;html=1;fillColor=none;fontSize=21;" vertex="1" parent="1">
          <mxGeometry x="1130" y="860" width="100" height="60" as="geometry" />
        </mxCell>
        <mxCell id="FPDgv3qLQ0yW6cerFrk5-66" value="rsvd" style="rounded=0;whiteSpace=wrap;html=1;fillColor=none;fontSize=21;" vertex="1" parent="1">
          <mxGeometry x="1100" y="860" width="30" height="60" as="geometry" />
        </mxCell>
        <mxCell id="FPDgv3qLQ0yW6cerFrk5-67" value="" style="endArrow=none;dashed=1;html=1;dashPattern=1 3;strokeWidth=2;fontSize=21;entryX=0.25;entryY=0;entryDx=0;entryDy=0;exitX=0.25;exitY=1;exitDx=0;exitDy=0;" edge="1" parent="1" source="FPDgv3qLQ0yW6cerFrk5-64" target="FPDgv3qLQ0yW6cerFrk5-64">
          <mxGeometry width="50" height="50" relative="1" as="geometry">
            <mxPoint x="1283" y="910" as="sourcePoint" />
            <mxPoint x="1330" y="960" as="targetPoint" />
          </mxGeometry>
        </mxCell>
        <mxCell id="FPDgv3qLQ0yW6cerFrk5-68" value="&lt;div style=&quot;text-align: left&quot;&gt;&lt;span&gt;1、HOST和SOC怎么区分？&lt;/span&gt;&lt;/div&gt;&lt;div style=&quot;text-align: left&quot;&gt;&lt;span&gt;A:&lt;/span&gt;&lt;/div&gt;" style="text;html=1;align=center;verticalAlign=middle;resizable=0;points=[];autosize=1;fontSize=21;" vertex="1" parent="1">
          <mxGeometry x="1640" y="-271" width="280" height="60" as="geometry" />
        </mxCell>
        <mxCell id="FPDgv3qLQ0yW6cerFrk5-69" value="&lt;div style=&quot;text-align: left&quot;&gt;&lt;span&gt;HOST端是pf2&lt;/span&gt;&lt;/div&gt;&lt;div style=&quot;text-align: left&quot;&gt;&lt;span&gt;SOC端是pf3&lt;/span&gt;&lt;/div&gt;" style="text;html=1;align=center;verticalAlign=middle;resizable=0;points=[];autosize=1;fontSize=21;" vertex="1" parent="1">
          <mxGeometry x="1640" y="-410" width="150" height="60" as="geometry" />
        </mxCell>
        <mxCell id="FPDgv3qLQ0yW6cerFrk5-70" value="" style="group" vertex="1" connectable="0" parent="1">
          <mxGeometry x="1410" y="-170" width="210" height="60" as="geometry" />
        </mxCell>
        <mxCell id="FPDgv3qLQ0yW6cerFrk5-71" value="" style="shape=curlyBracket;whiteSpace=wrap;html=1;rounded=1;fillColor=none;fontSize=21;" vertex="1" parent="FPDgv3qLQ0yW6cerFrk5-70">
          <mxGeometry x="90" y="5" width="20" height="50" as="geometry" />
        </mxCell>
        <mxCell id="FPDgv3qLQ0yW6cerFrk5-72" value="def_type" style="text;html=1;align=center;verticalAlign=middle;resizable=0;points=[];autosize=1;fontSize=21;" vertex="1" parent="FPDgv3qLQ0yW6cerFrk5-70">
          <mxGeometry y="15" width="100" height="30" as="geometry" />
        </mxCell>
        <mxCell id="FPDgv3qLQ0yW6cerFrk5-73" value="00:SOC&lt;br&gt;01:HOST" style="text;html=1;align=left;verticalAlign=middle;resizable=0;points=[];autosize=1;fontSize=21;" vertex="1" parent="FPDgv3qLQ0yW6cerFrk5-70">
          <mxGeometry x="110" width="100" height="60" as="geometry" />
        </mxCell>
        <mxCell id="FPDgv3qLQ0yW6cerFrk5-74" value="en" style="rounded=0;whiteSpace=wrap;html=1;fillColor=none;fontSize=21;" vertex="1" parent="1">
          <mxGeometry x="1620" y="920" width="40" height="60" as="geometry" />
        </mxCell>
        <mxCell id="FPDgv3qLQ0yW6cerFrk5-75" value="ring size[14:0]&lt;br&gt;(ring最大描述符数量)" style="rounded=0;whiteSpace=wrap;html=1;fillColor=none;fontSize=21;" vertex="1" parent="1">
          <mxGeometry x="1380" y="920" width="240" height="60" as="geometry" />
        </mxCell>
        <mxCell id="FPDgv3qLQ0yW6cerFrk5-76" value="rsvd" style="rounded=0;whiteSpace=wrap;html=1;fillColor=none;fontSize=21;" vertex="1" parent="1">
          <mxGeometry x="1100" y="920" width="280" height="60" as="geometry" />
        </mxCell>
        <mxCell id="FPDgv3qLQ0yW6cerFrk5-77" value="producer_ptr[15:0]" style="rounded=0;whiteSpace=wrap;html=1;fillColor=none;fontSize=21;" vertex="1" parent="1">
          <mxGeometry x="1380" y="980" width="280" height="60" as="geometry" />
        </mxCell>
        <mxCell id="FPDgv3qLQ0yW6cerFrk5-78" value="rsvd" style="rounded=0;whiteSpace=wrap;html=1;fillColor=none;fontSize=21;" vertex="1" parent="1">
          <mxGeometry x="1100" y="980" width="280" height="60" as="geometry" />
        </mxCell>
        <mxCell id="FPDgv3qLQ0yW6cerFrk5-79" value="consumer_ptr[15:0]" style="rounded=0;whiteSpace=wrap;html=1;fillColor=none;fontSize=21;" vertex="1" parent="1">
          <mxGeometry x="1380" y="1040" width="280" height="60" as="geometry" />
        </mxCell>
        <mxCell id="FPDgv3qLQ0yW6cerFrk5-80" value="rsvd" style="rounded=0;whiteSpace=wrap;html=1;fillColor=none;fontSize=21;" vertex="1" parent="1">
          <mxGeometry x="1100" y="1040" width="280" height="60" as="geometry" />
        </mxCell>
        <mxCell id="FPDgv3qLQ0yW6cerFrk5-81" value="dsc_base_lsw[31:0]" style="rounded=0;whiteSpace=wrap;html=1;fillColor=none;fontSize=21;" vertex="1" parent="1">
          <mxGeometry x="1100" y="1100" width="560" height="60" as="geometry" />
        </mxCell>
        <mxCell id="FPDgv3qLQ0yW6cerFrk5-82" value="dsc_base_msw[31:0]" style="rounded=0;whiteSpace=wrap;html=1;fillColor=none;fontSize=21;" vertex="1" parent="1">
          <mxGeometry x="1100" y="1160" width="560" height="60" as="geometry" />
        </mxCell>
        <mxCell id="FPDgv3qLQ0yW6cerFrk5-83" value="dsc_addr[63:0]" style="rounded=0;whiteSpace=wrap;html=1;fillColor=none;fontSize=21;" vertex="1" parent="1">
          <mxGeometry x="1660" y="1100" width="160" height="120" as="geometry" />
        </mxCell>
        <mxCell id="FPDgv3qLQ0yW6cerFrk5-84" value="state_base_lsw[31:0]" style="rounded=0;whiteSpace=wrap;html=1;fillColor=none;fontSize=21;" vertex="1" parent="1">
          <mxGeometry x="1100" y="1220" width="560" height="60" as="geometry" />
        </mxCell>
        <mxCell id="FPDgv3qLQ0yW6cerFrk5-85" value="state_base_msw[31:0]" style="rounded=0;whiteSpace=wrap;html=1;fillColor=none;fontSize=21;" vertex="1" parent="1">
          <mxGeometry x="1100" y="1280" width="560" height="60" as="geometry" />
        </mxCell>
        <mxCell id="FPDgv3qLQ0yW6cerFrk5-86" value="state_addr[63:0]" style="rounded=0;whiteSpace=wrap;html=1;fillColor=none;fontSize=21;" vertex="1" parent="1">
          <mxGeometry x="1660" y="1220" width="160" height="120" as="geometry" />
        </mxCell>
        <mxCell id="FPDgv3qLQ0yW6cerFrk5-87" value="先en置0" style="rounded=0;whiteSpace=wrap;html=1;fillColor=none;fontSize=21;" vertex="1" parent="1">
          <mxGeometry x="1660" y="1040" width="160" height="60" as="geometry" />
        </mxCell>
        <mxCell id="FPDgv3qLQ0yW6cerFrk5-88" value="31:25" style="rounded=0;whiteSpace=wrap;html=1;fillColor=none;fontSize=21;" vertex="1" parent="1">
          <mxGeometry x="1100" y="810" width="130" height="50" as="geometry" />
        </mxCell>
        <mxCell id="FPDgv3qLQ0yW6cerFrk5-89" value="15:0" style="rounded=0;whiteSpace=wrap;html=1;fillColor=none;fontSize=21;" vertex="1" parent="1">
          <mxGeometry x="1380" y="810" width="280" height="50" as="geometry" />
        </mxCell>
        <mxCell id="FPDgv3qLQ0yW6cerFrk5-90" value="24:16" style="rounded=0;whiteSpace=wrap;html=1;fillColor=none;fontSize=21;" vertex="1" parent="1">
          <mxGeometry x="1230" y="810" width="150" height="50" as="geometry" />
        </mxCell>
        <mxCell id="FPDgv3qLQ0yW6cerFrk5-91" value="1、一个ring包括四个部分（cmd）&lt;br&gt;描述符：指定了原始数据buffer的位置和长度，以及计算数据的返回位置&lt;br&gt;原始数据&lt;br&gt;返回数据&lt;br&gt;状态buffer&lt;br&gt;&lt;br&gt;目前看来，描述符即lookaside描述符；状态buffer即RING_CSR&lt;br&gt;" style="text;html=1;align=left;verticalAlign=middle;resizable=0;points=[];autosize=1;fontSize=21;" vertex="1" parent="1">
          <mxGeometry x="-192" y="869" width="680" height="180" as="geometry" />
        </mxCell>
        <mxCell id="FPDgv3qLQ0yW6cerFrk5-92" value="&lt;font style=&quot;font-size: 21px&quot;&gt;关于寄存器的配置部分：&lt;br&gt;&lt;/font&gt;1、文档提到：RING_CSR部分，ring_info寄存器，是pf可读写，vf只读，在寄存器配置时如何体现的&lt;br&gt;2、RING_CSR其它部分，ring_size，prod_ptr，cons_ptr，desc_base_addr，state_base_addr，VF可读写" style="text;html=1;align=left;verticalAlign=middle;resizable=0;points=[];autosize=1;" vertex="1" parent="1">
          <mxGeometry x="-310" y="1220" width="580" height="50" as="geometry" />
        </mxCell>
      </root>
    </mxGraphModel>
  </diagram>
</mxfile>
